<svg xmlns="http://www.w3.org/2000/svg" width="28" height="28" fill="none" viewBox="0 0 28 28">
  <path fill="url(#a)" d="M26.16 5.653c1.15-1.539 1.837-3.136 1.84-4.277-.001-.37-.075-.658-.216-.874a.699.699 0 0 0-.127-.163.738.738 0 0 0-.15-.116C27.283.073 26.993 0 26.623 0c-1.138.002-2.736.69-4.275 1.84-1.244.931-2.488 2.242-4.21 4.058-.292.308-.6.631-.925.97l-3.335-1 .01-.009a.744.744 0 0 0-.002-1.053l-.603-.603a.75.75 0 0 0-1.058-.002l-.902.902-.477-.142a.728.728 0 0 0 .158-.455.734.734 0 0 0-.217-.531l-.606-.605a.75.75 0 0 0-1.055 0l-.827.827-3.392-1.016a.897.897 0 0 0-.87.22L2.845 4.594a.703.703 0 0 0-.21.491.685.685 0 0 0 .364.614l7.132 3.984c.035.02.136.094.173.132l2.034 2.033C10.435 13.85 8.74 15.791 7.42 17.48c-.123.157-.24.31-.355.461l-5.517-.5a.712.712 0 0 0-.096-.007c-.252.005-.5.105-.683.283l-.556.555A.678.678 0 0 0 .4 19.387l3.882 1.844a.88.88 0 0 1 .148.107l.323.32a2.35 2.35 0 0 0-.155.746c-.001.289.092.537.27.715l.014.012.004.003c.183.177.42.267.714.267a2.35 2.35 0 0 0 .74-.154l.327.327a.888.888 0 0 1 .102.146l1.84 3.873a.685.685 0 0 0 .618.407h.004a.69.69 0 0 0 .49-.207l.57-.571a1.014 1.014 0 0 0 .27-.751l-.503-5.538c.151-.114.304-.231.461-.353 1.69-1.323 3.632-3.019 5.632-4.917l2.034 2.036c.033.032.11.133.133.175l3.977 7.119a.692.692 0 0 0 1.11.163l1.2-1.2a.91.91 0 0 0 .214-.86l-1.016-3.393.826-.828a.747.747 0 0 0 .001-1.055l-.606-.606a.748.748 0 0 0-.986-.061l-.142-.475.902-.903a.753.753 0 0 0 0-1.055l-.603-.604a.749.749 0 0 0-1.06 0l-.006.006-1-3.336c.346-.329.674-.642.987-.937 1.808-1.716 3.114-2.955 4.043-4.196Z"/>
  <defs>
    <linearGradient id="a" x1="12" x2="12.746" y1="26.814" y2="-1.864" gradientUnits="userSpaceOnUse">
      <stop stop-color="#fff"/>
      <stop offset="1" stop-color="#F4F4F4"/>
    </linearGradient>
  </defs>
</svg>